<svg xmlns="http://www.w3.org/2000/svg" xmlns:xlink="http://www.w3.org/1999/xlink" width="500" zoomAndPan="magnify" viewBox="0 0 375 374.999991" height="500" preserveAspectRatio="xMidYMid meet" version="1.0"><defs><g/><clipPath id="ea29aa01e1"><path d="M 119 95 L 256 95 L 256 224 L 119 224 Z M 119 95 " clip-rule="nonzero"/></clipPath><clipPath id="4ac365ca6e"><path d="M 198.476562 100.078125 L 251.34375 149.3125 C 254.179688 151.957031 255.792969 155.660156 255.792969 159.535156 C 255.792969 163.414062 254.179688 167.117188 251.34375 169.757812 L 198.476562 218.992188 C 192.292969 224.75 182.707031 224.75 176.523438 218.992188 L 123.65625 169.757812 C 120.820312 167.117188 119.207031 163.414062 119.207031 159.535156 C 119.207031 155.660156 120.820312 151.957031 123.65625 149.3125 L 176.523438 100.078125 C 182.707031 94.320312 192.292969 94.320312 198.476562 100.078125 " clip-rule="nonzero"/></clipPath><clipPath id="02f14bcce3"><path d="M 154 81.074219 L 221 81.074219 L 221 233.324219 L 154 233.324219 Z M 154 81.074219 " clip-rule="nonzero"/></clipPath></defs><g clip-path="url(#ea29aa01e1)"><g clip-path="url(#4ac365ca6e)"><path fill="#036b52" d="M 112.679688 89.855469 L 262.320312 89.855469 L 262.320312 230.144531 L 112.679688 230.144531 Z M 112.679688 89.855469 " fill-opacity="1" fill-rule="nonzero"/></g></g><g clip-path="url(#02f14bcce3)"><path fill="#2fc18c" d="M 217.976562 99.304688 C 218.023438 99.824219 218.054688 100.273438 218.101562 100.726562 C 218.519531 104.660156 218.917969 108.59375 219.359375 112.527344 C 219.785156 116.261719 219.269531 119.960938 219.058594 123.679688 C 218.675781 130.402344 216.816406 136.816406 215.058594 143.25 C 213.015625 150.738281 211.074219 158.25 209.476562 165.84375 C 208.773438 169.183594 208.015625 172.515625 207.429688 175.875 C 206.925781 178.777344 206.589844 181.710938 206.253906 184.640625 C 205.808594 188.570312 205.367188 192.503906 205.042969 196.445312 C 204.664062 201.089844 204.492188 205.742188 205.15625 210.386719 C 205.386719 212 205.507812 213.628906 205.597656 215.257812 C 205.769531 218.367188 206.285156 221.421875 206.996094 224.445312 C 207.359375 225.996094 206.710938 227.183594 205.660156 228.1875 C 205.164062 228.664062 204.542969 229.039062 203.929688 229.359375 C 200.378906 231.210938 196.632812 232.421875 192.625 232.773438 C 191.386719 232.882812 190.15625 233.082031 188.914062 233.164062 C 186.570312 233.324219 184.269531 232.863281 181.953125 232.617188 C 178.761719 232.28125 175.753906 231.183594 172.652344 230.492188 C 171.324219 230.199219 170.164062 229.546875 169.1875 228.652344 C 167.511719 227.113281 166.511719 225.355469 167.027344 222.878906 C 167.757812 219.382812 167.878906 215.796875 168.289062 212.253906 C 168.804688 207.753906 168.851562 203.265625 168.589844 198.773438 C 168.375 195.132812 167.988281 191.503906 167.59375 187.878906 C 167.238281 184.640625 166.816406 181.40625 166.335938 178.183594 C 165.949219 175.578125 165.515625 172.972656 164.945312 170.398438 C 163.074219 161.992188 161.128906 153.605469 158.855469 145.292969 C 157.609375 140.730469 156.464844 136.136719 155.398438 131.527344 C 154.964844 129.648438 154.84375 127.695312 154.625 125.769531 C 154.441406 124.148438 154.277344 122.527344 154.179688 120.902344 C 153.882812 115.925781 154.152344 110.96875 154.808594 106.03125 C 154.929688 105.109375 154.996094 104.175781 155.164062 103.261719 C 155.410156 101.9375 155.496094 100.703125 154.554688 99.535156 C 153.984375 98.832031 154.0625 97.921875 154.480469 97.101562 C 154.773438 96.527344 154.832031 95.980469 154.722656 95.320312 C 154.355469 93.128906 155.511719 91.566406 157.175781 90.410156 C 158.320312 89.609375 159.671875 89.039062 161.132812 89.394531 C 162.527344 89.730469 163.332031 89.097656 164.027344 88.023438 C 164.574219 87.175781 165.238281 86.402344 165.796875 85.5625 C 167.011719 83.734375 168.757812 82.8125 170.894531 82.75 C 172.097656 82.714844 173.199219 82.53125 174.21875 81.894531 C 174.414062 81.773438 174.640625 81.691406 174.863281 81.628906 C 176.074219 81.300781 177 81.589844 177.734375 82.613281 C 178.089844 83.113281 178.324219 83.699219 178.625 84.242188 C 179.164062 85.207031 179.773438 85.421875 180.730469 84.871094 C 181.328125 84.523438 181.921875 84.105469 182.371094 83.59375 C 184.070312 81.640625 186.210938 81.082031 188.683594 81.40625 C 189.066406 81.457031 189.457031 81.484375 189.847656 81.503906 C 191.351562 81.59375 192.523438 82.121094 193.136719 83.644531 C 193.492188 84.523438 194.050781 84.730469 194.785156 84.277344 C 196.746094 83.066406 198.734375 83.246094 200.851562 83.773438 C 202.730469 84.242188 204.671875 84.492188 206.597656 84.710938 C 207.972656 84.871094 209.179688 85.296875 210.136719 86.285156 C 210.773438 86.9375 211.523438 87.242188 212.398438 87.355469 C 212.9375 87.425781 213.488281 87.492188 213.996094 87.664062 C 215.003906 88 215.785156 88.597656 215.996094 89.726562 C 216.050781 90.03125 216.125 90.332031 216.191406 90.636719 C 216.390625 91.527344 216.878906 92.171875 217.734375 92.550781 C 218.300781 92.800781 218.878906 93.0625 219.382812 93.414062 C 221.355469 94.800781 221.347656 97.058594 219.386719 98.429688 C 218.949219 98.734375 218.480469 98.992188 217.976562 99.304688 Z M 162.066406 134.195312 C 162.636719 136.074219 163.058594 137.476562 163.484375 138.875 C 165.257812 144.664062 167.164062 150.417969 168.765625 156.25 C 170.867188 163.894531 172.417969 171.660156 173.132812 179.570312 C 173.546875 184.132812 174.097656 188.6875 174.3125 193.257812 C 174.597656 199.304688 174.613281 205.367188 174.734375 211.421875 C 174.773438 213.207031 174.78125 214.992188 174.800781 216.777344 C 174.808594 217.609375 175.128906 218.265625 175.8125 218.769531 C 176.5625 219.324219 177.273438 219.917969 178.234375 220.109375 C 179.753906 220.417969 181.25 220.902344 182.785156 221.054688 C 185.882812 221.363281 189.003906 221.464844 192.089844 220.914062 C 194.226562 220.535156 196.363281 220.101562 198.457031 219.53125 C 199.992188 219.117188 200.5625 218.238281 200.234375 216.734375 C 199.488281 213.289062 199.382812 209.800781 199.351562 206.308594 C 199.320312 202.894531 199.347656 199.472656 199.578125 196.070312 C 199.871094 191.734375 200.324219 187.40625 200.832031 183.089844 C 201.496094 177.390625 202.078125 171.679688 203.175781 166.027344 C 204.480469 159.296875 206.464844 152.777344 208.683594 146.3125 C 208.875 145.753906 209.183594 145.234375 209.648438 144.25 C 209.75 145.027344 209.855469 145.316406 209.804688 145.574219 C 209.613281 146.5625 209.394531 147.550781 209.136719 148.523438 C 208.167969 152.203125 207.09375 155.855469 206.21875 159.554688 C 204.390625 167.269531 203.246094 175.101562 202.4375 182.980469 C 202.046875 186.765625 201.816406 190.566406 201.402344 194.34375 C 200.855469 199.308594 200.882812 204.265625 201.34375 209.226562 C 201.535156 211.3125 201.722656 213.398438 201.882812 215.488281 C 201.945312 216.339844 201.933594 217.195312 201.933594 218.050781 C 201.9375 219.496094 201.265625 220.609375 200.066406 221.332031 C 199.210938 221.847656 198.265625 222.269531 197.3125 222.570312 C 192.5 224.070312 187.601562 224.738281 182.585938 223.839844 C 179.957031 223.371094 177.539062 222.308594 175.207031 221.042969 C 173.574219 220.15625 172.695312 218.757812 172.523438 216.929688 C 172.4375 216.003906 172.425781 215.070312 172.398438 214.140625 C 172.144531 205.601562 172.421875 197.054688 171.96875 188.515625 C 171.546875 180.59375 170.816406 172.722656 169.074219 164.972656 C 168.261719 161.335938 167.648438 157.636719 166.546875 154.089844 C 163.992188 145.855469 161.789062 137.527344 159.542969 129.210938 C 159.058594 127.417969 158.792969 125.5625 158.46875 123.730469 C 158.402344 123.351562 158.527344 122.941406 158.613281 122.019531 C 159.742188 124.734375 159.828125 127.203125 160.910156 129.328125 C 161.078125 129.304688 161.167969 129.316406 161.226562 129.28125 C 164.410156 127.25 167.851562 125.902344 171.582031 125.261719 C 173.019531 125.015625 174.429688 124.625 175.832031 124.304688 C 176.015625 123.632812 176.128906 123.105469 176.304688 122.59375 C 176.683594 121.484375 176.589844 120.496094 175.792969 119.550781 C 175.46875 119.160156 175.371094 118.574219 175.191406 118.070312 C 175.089844 117.78125 175.132812 117.339844 174.941406 117.199219 C 173.75 116.316406 173.648438 114.964844 173.375 113.644531 C 172.761719 113.308594 172.167969 112.933594 171.539062 112.648438 C 170.527344 112.191406 169.820312 112.613281 169.789062 113.703125 C 169.761719 114.710938 169.847656 115.722656 169.835938 116.730469 C 169.816406 118.523438 169.085938 119.53125 167.339844 119.847656 C 166.203125 120.050781 165.011719 120.035156 163.855469 119.980469 C 162.375 119.910156 161.816406 119.351562 161.523438 117.871094 C 161.109375 115.777344 161.21875 113.699219 161.796875 111.644531 C 161.984375 110.980469 162.332031 110.339844 161.949219 109.484375 C 161.691406 109.394531 161.339844 109.253906 160.980469 109.148438 C 159.910156 108.835938 159.246094 108.164062 159.054688 107.046875 C 158.9375 106.359375 158.828125 105.664062 158.648438 104.992188 C 158.535156 104.558594 158.378906 104.09375 158.101562 103.75 C 157.589844 103.113281 156.976562 102.558594 156.402344 101.96875 C 156.316406 102.085938 156.171875 102.1875 156.160156 102.304688 C 155.1875 111 155.203125 119.683594 157 128.273438 C 157.917969 132.671875 159.042969 137.046875 160.367188 141.34375 C 163.226562 150.621094 165.761719 159.984375 167.980469 169.429688 C 168.335938 170.941406 168.660156 172.46875 168.84375 174.003906 C 169.492188 179.476562 170.121094 184.953125 170.667969 190.433594 C 170.992188 193.679688 171.144531 196.9375 171.382812 200.1875 C 171.578125 202.828125 171.636719 205.464844 171.28125 208.09375 C 171.074219 209.632812 170.867188 211.171875 170.691406 212.710938 C 170.304688 216.027344 170.1875 219.371094 169.429688 222.640625 C 169.359375 222.941406 169.328125 223.253906 169.308594 223.5625 C 169.203125 225.226562 169.507812 225.757812 171.125 226.347656 C 175.976562 228.128906 180.957031 229.292969 186.160156 229.1875 C 188.179688 229.144531 190.210938 229.054688 192.214844 228.8125 C 195.144531 228.460938 198.066406 228.003906 200.972656 227.484375 C 201.945312 227.308594 202.875 226.835938 203.789062 226.417969 C 204.304688 226.183594 204.585938 225.6875 204.566406 225.085938 C 204.554688 224.699219 204.566406 224.300781 204.476562 223.929688 C 203.554688 220.0625 203.273438 216.109375 202.828125 212.175781 C 202.644531 210.558594 202.378906 208.949219 202.238281 207.324219 C 201.820312 202.585938 202.160156 197.859375 202.550781 193.136719 C 202.882812 189.113281 203.3125 185.101562 203.730469 181.085938 C 204.238281 176.222656 204.824219 171.378906 206.015625 166.609375 C 208.21875 157.796875 210.609375 149.042969 213.261719 140.355469 C 214.824219 135.242188 216.328125 130.089844 217.011719 124.746094 C 217.585938 120.277344 218.277344 115.824219 218.046875 111.300781 C 217.898438 108.355469 217.703125 105.410156 217.5 102.464844 C 217.457031 101.878906 217.273438 101.304688 217.140625 100.640625 C 216.265625 100.953125 215.558594 101.304688 214.8125 101.445312 C 214.105469 101.578125 213.355469 101.492188 212.371094 101.507812 C 213.546875 103.636719 212.414062 104.769531 210.964844 105.765625 C 210.515625 106.074219 210.066406 106.390625 209.578125 106.628906 C 208.183594 107.316406 207.496094 108.457031 207.375 109.960938 C 207.300781 110.882812 207.136719 111.839844 207.296875 112.734375 C 207.617188 114.539062 207.292969 116.292969 207.15625 118.070312 C 207.046875 119.535156 206.171875 120.496094 204.9375 121.132812 C 202.875 122.203125 201.28125 121.519531 200.617188 119.300781 C 200.464844 118.789062 200.382812 118.230469 200.40625 117.695312 C 200.453125 116.535156 200.554688 115.375 200.691406 114.222656 C 200.800781 113.308594 200.996094 112.402344 201.144531 111.542969 C 200.386719 110.960938 199.589844 110.546875 199.082031 109.90625 C 198.574219 109.265625 198.335938 108.402344 198.011719 107.625 C 197.621094 106.6875 196.871094 106.1875 195.976562 105.832031 C 195.214844 105.53125 194.488281 105.988281 194.585938 106.800781 C 194.679688 107.558594 194.886719 108.320312 195.148438 109.042969 C 195.472656 109.957031 195.238281 110.722656 194.707031 111.445312 C 194.023438 112.386719 193.054688 112.808594 191.929688 112.96875 C 190.71875 113.144531 189.617188 112.820312 188.539062 112.335938 C 186.886719 111.597656 185.394531 111.855469 183.945312 112.929688 C 182.09375 114.296875 181.8125 115.492188 183.011719 117.5 C 183.089844 117.632812 183.1875 117.757812 183.277344 117.882812 C 184.207031 119.222656 184.238281 120.625 183.578125 122.078125 C 183.363281 122.558594 182.941406 122.972656 183.074219 123.558594 C 183.132812 123.625 183.179688 123.71875 183.234375 123.726562 C 183.691406 123.765625 184.148438 123.828125 184.605469 123.816406 C 185.925781 123.773438 187.246094 123.632812 188.566406 123.652344 C 192.765625 123.707031 196.960938 123.890625 201.136719 124.390625 C 204.554688 124.800781 207.871094 125.554688 211.054688 126.875 C 211.464844 127.046875 211.898438 127.167969 212.425781 127.351562 C 212.566406 126.871094 212.722656 126.515625 212.773438 126.144531 C 213.15625 123.296875 213.589844 120.457031 213.867188 117.601562 C 214.160156 114.589844 214.296875 111.5625 214.511719 108.539062 C 214.539062 108.175781 214.652344 107.816406 214.824219 106.96875 C 215.546875 113.082031 215.347656 122.542969 214.46875 127.691406 C 213.941406 130.769531 212.96875 133.710938 211.820312 136.605469 C 211.65625 137.019531 211.546875 137.507812 210.757812 137.421875 C 210.867188 136.394531 210.972656 135.363281 211.101562 134.148438 C 210.464844 134.3125 210.03125 134.410156 209.605469 134.542969 C 208.347656 134.933594 207.113281 135.476562 205.828125 135.714844 C 201.933594 136.441406 198.023438 137.105469 194.105469 137.683594 C 191.957031 138 189.777344 138.148438 187.605469 138.289062 C 185.746094 138.410156 183.875 138.535156 182.019531 138.433594 C 179.386719 138.289062 176.75 138 174.132812 137.652344 C 171.359375 137.28125 168.609375 136.722656 165.964844 135.78125 C 164.800781 135.371094 163.675781 134.855469 162.066406 134.195312 Z M 193.371094 108.917969 C 193.246094 108.175781 193.050781 107.496094 193.035156 106.808594 C 192.992188 104.992188 194.527344 103.898438 196.1875 104.59375 C 197.335938 105.070312 198.503906 105.644531 199.007812 106.890625 C 199.402344 107.882812 200.152344 108.296875 201.085938 108.558594 C 201.308594 108.621094 201.539062 108.679688 201.75 108.777344 C 202.636719 109.183594 202.855469 109.660156 202.632812 110.632812 C 202.335938 111.917969 202.050781 113.203125 201.757812 114.488281 C 201.4375 115.894531 201.664062 117.277344 202.007812 118.636719 C 202.296875 119.789062 203.078125 120.058594 204.148438 119.492188 C 205.039062 119.019531 205.609375 118.289062 205.722656 117.316406 C 205.867188 116.089844 205.890625 114.847656 205.945312 113.609375 C 206.03125 111.59375 206.066406 109.578125 206.195312 107.566406 C 206.3125 105.734375 207.320312 104.558594 209.082031 104.035156 C 209.828125 103.8125 210.582031 103.625 211.179688 102.847656 C 211.179688 102.570312 211.136719 102.179688 211.1875 101.808594 C 211.339844 100.734375 211.804688 100.28125 212.816406 100.183594 C 213.125 100.152344 213.441406 100.171875 213.75 100.1875 C 214.769531 100.246094 215.53125 99.800781 216.195312 98.972656 C 215.824219 97.113281 216.746094 95.730469 218.058594 94.519531 C 217.792969 94.269531 217.65625 94.035156 217.460938 93.96875 C 215.828125 93.410156 214.84375 92.378906 214.75 90.578125 C 214.734375 90.28125 214.328125 90.007812 214.054688 89.664062 C 213.273438 90.085938 212.632812 90.527344 211.925781 90.796875 C 210.09375 91.503906 208.203125 90.210938 208.164062 88.257812 C 208.152344 87.726562 208.234375 87.191406 208.28125 86.53125 C 207.75 86.324219 207.269531 85.984375 206.777344 85.96875 C 204.347656 85.902344 201.996094 85.40625 199.660156 84.800781 C 198.332031 84.453125 197.1875 84.757812 196.347656 85.871094 C 195.339844 87.207031 193.9375 87.5 192.402344 87.40625 C 190.914062 87.316406 189.996094 86.34375 189.90625 84.847656 C 189.878906 84.332031 189.902344 83.808594 189.902344 83.214844 C 189.386719 83.144531 188.933594 83.050781 188.476562 83.019531 C 186.621094 82.886719 185.132812 83.433594 184.226562 85.210938 C 183.878906 85.890625 183.378906 86.523438 182.847656 87.074219 C 181.980469 87.976562 180.902344 88.292969 179.648438 87.964844 C 178.542969 87.675781 177.675781 87.082031 177.050781 86.125 C 176.71875 85.617188 176.394531 85.101562 176.070312 84.601562 C 175.742188 84.601562 175.496094 84.546875 175.285156 84.609375 C 173.898438 85.046875 172.578125 85.121094 171.25 84.3125 C 170.859375 84.074219 170.183594 84.171875 169.679688 84.285156 C 168.65625 84.523438 167.875 85.160156 167.289062 86.035156 C 166.253906 87.582031 165.265625 89.117188 164.84375 91.003906 C 164.417969 92.894531 162.800781 93.519531 161.027344 92.695312 C 160.609375 92.5 160.25 92.1875 159.847656 91.949219 C 158.765625 91.316406 158.007812 91.417969 157.171875 92.359375 C 156.8125 92.761719 156.507812 93.222656 156.25 93.695312 C 155.898438 94.335938 155.730469 94.996094 156.34375 95.617188 C 156.785156 96.070312 156.699219 96.59375 156.527344 97.140625 C 156.15625 98.316406 156.527344 99.285156 157.492188 99.996094 C 158.105469 100.449219 158.75 100.917969 159.453125 101.183594 C 160.714844 101.65625 161.316406 102.441406 161.28125 103.808594 C 161.253906 104.882812 161.375 105.964844 161.425781 106.984375 C 161.8125 107.214844 162.070312 107.398438 162.347656 107.53125 C 163.726562 108.203125 164.238281 109.273438 163.933594 110.777344 C 163.765625 111.613281 163.652344 112.464844 163.574219 113.3125 C 163.476562 114.390625 163.347656 115.476562 163.402344 116.550781 C 163.476562 118.003906 163.835938 118.285156 165.273438 118.34375 C 166.351562 118.390625 167.441406 118.429688 168.25 117.359375 C 167.878906 116.554688 167.511719 115.796875 167.171875 115.03125 C 166.46875 113.445312 167.136719 112.039062 168.285156 111.09375 C 169.382812 110.191406 170.878906 110.148438 172.199219 110.960938 C 172.722656 111.28125 173.207031 111.6875 173.761719 111.945312 C 174.453125 112.265625 174.890625 112.753906 175.078125 113.46875 C 175.304688 114.328125 175.726562 115.019531 176.523438 115.488281 C 177.109375 115.832031 177.265625 116.425781 177.265625 117.09375 C 177.269531 117.777344 177.175781 118.542969 177.445312 119.128906 C 178.59375 121.644531 178.097656 123.960938 176.839844 126.246094 C 176.578125 126.722656 176.332031 127.210938 176.144531 127.71875 C 175.605469 129.179688 175.765625 130.625 176.386719 132.019531 C 176.804688 132.960938 177.648438 133.398438 178.65625 133.316406 C 179.644531 133.230469 180.34375 132.632812 180.542969 131.570312 C 180.65625 130.96875 180.667969 130.335938 180.632812 129.722656 C 180.558594 128.484375 180.433594 127.246094 180.3125 126.011719 C 180.179688 124.710938 180.515625 123.550781 181.292969 122.507812 C 181.617188 122.074219 181.96875 121.660156 182.273438 121.210938 C 182.804688 120.433594 182.832031 119.613281 182.367188 118.796875 C 182.097656 118.324219 181.722656 117.90625 181.507812 117.414062 C 180.859375 115.917969 180.691406 114.398438 181.710938 112.992188 C 183.203125 110.9375 185.890625 109.933594 188.316406 110.769531 C 190.394531 111.484375 191.945312 111.144531 193.140625 109.296875 C 193.183594 109.230469 193.222656 109.164062 193.371094 108.917969 Z M 182.671875 125.679688 C 182.742188 127.414062 182.863281 128.882812 182.847656 130.347656 C 182.832031 131.539062 182.515625 132.746094 181.507812 133.457031 C 179.085938 135.171875 175.601562 134.914062 174.765625 131.210938 C 174.53125 130.175781 174.660156 129.054688 174.617188 127.976562 C 174.601562 127.539062 174.582031 127.105469 174.5625 126.714844 C 174.246094 126.648438 174.085938 126.5625 173.949219 126.59375 C 171.226562 127.214844 168.480469 127.765625 165.789062 128.515625 C 164.617188 128.839844 163.503906 129.492188 162.46875 130.15625 C 161.636719 130.695312 161.671875 131.707031 162.414062 132.347656 C 162.765625 132.648438 163.152344 132.949219 163.578125 133.109375 C 164.667969 133.515625 165.765625 133.933594 166.898438 134.191406 C 169.476562 134.777344 172.089844 135.167969 174.746094 135.230469 C 178.632812 135.320312 182.523438 135.410156 186.410156 135.546875 C 191.089844 135.707031 195.746094 135.367188 200.359375 134.660156 C 203.433594 134.183594 206.453125 133.394531 209.296875 132.082031 C 210.066406 131.726562 210.816406 131.296875 211.507812 130.804688 C 212.207031 130.308594 212.265625 129.542969 211.617188 129.027344 C 210.898438 128.457031 210.113281 127.894531 209.265625 127.566406 C 208.039062 127.097656 206.742188 126.769531 205.453125 126.511719 C 199.164062 125.269531 192.804688 124.953125 186.410156 125.191406 C 185.179688 125.234375 183.945312 125.335938 182.671875 125.679688 Z M 182.671875 125.679688 " fill-opacity="1" fill-rule="evenodd"/></g><path fill="#2fc18c" d="M 205.152344 147.75 C 204.949219 148.796875 204.757812 149.84375 204.535156 150.890625 C 202.570312 160.222656 200.890625 169.609375 199.757812 179.082031 C 198.976562 185.625 198.445312 192.199219 198.207031 198.789062 C 198.03125 203.671875 197.863281 208.554688 197.699219 213.4375 C 197.652344 214.828125 197.46875 216.1875 197.0625 218.042969 C 196.734375 217.234375 196.519531 216.917969 196.488281 216.578125 C 196.363281 215.347656 196.246094 214.109375 196.226562 212.871094 C 196.125 205.8125 196.203125 198.757812 196.726562 191.710938 C 197.765625 177.835938 200.097656 164.175781 203.707031 150.734375 C 203.984375 149.699219 204.363281 148.6875 204.691406 147.667969 C 204.847656 147.695312 205 147.722656 205.152344 147.75 Z M 205.152344 147.75 " fill-opacity="1" fill-rule="evenodd"/><path fill="#2fc18c" d="M 197.277344 169.152344 C 197.304688 169.523438 197.386719 169.902344 197.347656 170.265625 C 196.261719 180.433594 196.113281 190.667969 195.335938 200.855469 C 195.328125 200.96875 195.160156 201.066406 194.96875 201.277344 C 194.8125 200.976562 194.601562 200.734375 194.566406 200.464844 C 194.464844 199.703125 194.402344 198.925781 194.378906 198.15625 C 194.226562 192.574219 194.347656 186.996094 194.882812 181.441406 C 195.222656 177.898438 195.832031 174.382812 196.347656 170.859375 C 196.433594 170.273438 196.652344 169.703125 196.8125 169.125 C 196.964844 169.132812 197.121094 169.140625 197.277344 169.152344 Z M 197.277344 169.152344 " fill-opacity="1" fill-rule="evenodd"/><path fill="#2fc18c" d="M 170.566406 151.136719 C 171.351562 151.996094 171.378906 153.132812 171.5625 154.171875 C 172.515625 159.515625 173.496094 164.859375 174.285156 170.226562 C 175.121094 175.902344 175.761719 181.609375 176.46875 187.304688 C 176.535156 187.824219 176.480469 188.359375 176.480469 188.949219 C 175.777344 188.511719 175.773438 187.847656 175.675781 187.257812 C 175.1875 184.273438 171.886719 162.023438 170.734375 153.886719 C 170.605469 152.972656 170.640625 152.035156 170.601562 151.109375 Z M 170.566406 151.136719 " fill-opacity="1" fill-rule="evenodd"/><path fill="#2fc18c" d="M 199.574219 156.390625 C 199.574219 156.015625 199.519531 155.632812 199.582031 155.265625 C 200.402344 150.460938 201.296875 145.667969 202.59375 140.960938 C 202.667969 140.691406 202.8125 140.441406 203.019531 139.96875 C 203.453125 141.914062 203.085938 144.695312 201.382812 152.242188 C 201.054688 153.699219 200.988281 155.28125 199.574219 156.390625 Z M 199.574219 156.390625 " fill-opacity="1" fill-rule="evenodd"/><path fill="#2fc18c" d="M 183.429688 196.023438 C 182.886719 196.917969 183.035156 197.660156 183.574219 198.421875 C 183.710938 198.609375 183.523438 199.191406 183.304688 199.425781 C 182.800781 199.957031 182.144531 200.136719 181.410156 199.820312 C 180.710938 199.523438 180.28125 199.035156 180.210938 198.269531 C 180.078125 196.863281 181.265625 195.5 182.671875 195.511719 C 182.902344 195.511719 183.132812 195.8125 183.429688 196.023438 Z M 183.429688 196.023438 " fill-opacity="1" fill-rule="evenodd"/><path fill="#2fc18c" d="M 190.121094 207.914062 C 189.894531 208.269531 189.785156 208.585938 189.566406 208.761719 C 188.914062 209.273438 188.175781 209.417969 187.398438 209.039062 C 186.621094 208.65625 186.304688 207.992188 186.304688 207.152344 C 186.304688 206.40625 186.617188 205.824219 187.214844 205.375 C 187.796875 204.941406 188.449219 205.152344 188.515625 205.917969 C 188.566406 206.546875 188.753906 206.886719 189.347656 207.117188 C 189.644531 207.234375 189.84375 207.617188 190.121094 207.914062 Z M 190.121094 207.914062 " fill-opacity="1" fill-rule="evenodd"/><path fill="#2fc18c" d="M 186.015625 187.277344 C 184.867188 187.277344 184.027344 186.203125 184.3125 185.101562 C 184.570312 184.121094 185.457031 183.871094 186.1875 184.582031 C 186.460938 184.847656 186.785156 185.085938 186.96875 185.402344 C 187.144531 185.699219 187.273438 186.101562 187.226562 186.429688 C 187.160156 186.929688 186.5625 187.277344 186.015625 187.277344 Z M 186.015625 187.277344 " fill-opacity="1" fill-rule="evenodd"/><path fill="#2fc18c" d="M 188.335938 165.835938 C 188.273438 166.023438 188.257812 166.1875 188.175781 166.3125 C 187.722656 166.996094 186.867188 167.199219 186.125 166.820312 C 185.371094 166.429688 185.035156 165.632812 185.300781 164.871094 C 185.636719 163.921875 186.433594 163.777344 187.1875 164.519531 C 187.457031 164.785156 187.792969 164.984375 188.050781 165.257812 C 188.199219 165.414062 188.253906 165.660156 188.335938 165.835938 Z M 188.335938 165.835938 " fill-opacity="1" fill-rule="evenodd"/><path fill="#2fc18c" d="M 183.910156 174.28125 C 184.378906 174.605469 184.859375 174.964844 185.367188 175.289062 C 186.0625 175.734375 186.042969 176.476562 185.296875 176.972656 C 184.515625 177.492188 183.597656 177.292969 183.054688 176.519531 C 182.496094 175.734375 182.726562 175.097656 183.910156 174.28125 Z M 183.910156 174.28125 " fill-opacity="1" fill-rule="evenodd"/><path fill="#2fc18c" d="M 184.53125 156.296875 C 184.382812 156.5625 184.332031 156.722656 184.230469 156.824219 C 183.667969 157.382812 182.757812 157.457031 182.109375 157.015625 C 181.433594 156.554688 181.203125 155.757812 181.527344 154.980469 C 181.8125 154.292969 182.488281 154.101562 182.902344 154.714844 C 183.257812 155.234375 183.832031 155.234375 184.191406 155.609375 C 184.378906 155.804688 184.445312 156.117188 184.53125 156.296875 Z M 184.53125 156.296875 " fill-opacity="1" fill-rule="evenodd"/><path fill="#2fc18c" d="M 192.695312 198.972656 C 192.695312 195.511719 192.695312 192.050781 192.695312 188.0625 C 193.113281 190.558594 193.109375 196.515625 192.695312 198.972656 Z M 192.695312 198.972656 " fill-opacity="1" fill-rule="evenodd"/><path fill="#2fc18c" d="M 178.011719 169.660156 C 177.304688 169.691406 176.648438 169.035156 176.6875 168.34375 C 176.730469 167.640625 177.371094 167.007812 178.042969 167.003906 C 178.570312 167.003906 178.984375 167.566406 179.042969 168.367188 C 179.09375 169.082031 178.652344 169.636719 178.011719 169.660156 Z M 178.011719 169.660156 " fill-opacity="1" fill-rule="evenodd"/><path fill="#2fc18c" d="M 186.871094 143.035156 C 187.269531 143.605469 187.214844 144.535156 188.101562 144.789062 C 188.144531 144.804688 188.144531 145.433594 187.988281 145.558594 C 187.71875 145.773438 187.304688 145.941406 186.964844 145.914062 C 186.164062 145.855469 185.589844 145.144531 185.578125 144.351562 C 185.566406 143.707031 185.875 143.382812 186.871094 143.035156 Z M 186.871094 143.035156 " fill-opacity="1" fill-rule="evenodd"/><path fill="#2fc18c" d="M 195.980469 146.882812 C 195.734375 147.1875 195.597656 147.472656 195.375 147.621094 C 194.90625 147.933594 194.367188 147.832031 193.929688 147.421875 C 193.496094 147.019531 193.394531 146.511719 193.644531 145.992188 C 193.898438 145.472656 194.5625 145.261719 194.964844 145.636719 C 195.332031 145.984375 195.613281 146.421875 195.980469 146.882812 Z M 195.980469 146.882812 " fill-opacity="1" fill-rule="evenodd"/><path fill="#2fc18c" d="M 175.296875 149.390625 C 175.609375 149.679688 175.90625 149.910156 176.144531 150.191406 C 176.480469 150.589844 176.445312 151.054688 176.128906 151.425781 C 175.820312 151.789062 175.378906 151.941406 174.902344 151.769531 C 174.417969 151.597656 174.214844 151.210938 174.242188 150.710938 C 174.269531 150.144531 174.503906 149.703125 175.296875 149.390625 Z M 175.296875 149.390625 " fill-opacity="1" fill-rule="evenodd"/><path fill="#2fc18c" d="M 190.019531 156.355469 C 190.15625 156.214844 190.363281 155.808594 190.617188 155.777344 C 191.097656 155.710938 191.414062 156.09375 191.570312 156.546875 C 191.6875 156.882812 191.351562 157.289062 190.960938 157.320312 C 190.464844 157.359375 190.097656 157.054688 190.019531 156.355469 Z M 190.019531 156.355469 " fill-opacity="1" fill-rule="evenodd"/><path fill="#2fc18c" d="M 170.601562 151.109375 C 170.453125 150.792969 170.304688 150.476562 170.070312 149.988281 C 170.820312 150.320312 170.527344 150.777344 170.566406 151.136719 Z M 170.601562 151.109375 " fill-opacity="1" fill-rule="evenodd"/><path fill="#2fc18c" d="M 177.546875 100.882812 C 177.429688 101.898438 176.304688 102.660156 175.519531 102.355469 C 175.34375 102.289062 175.148438 102.042969 175.121094 101.859375 C 174.976562 100.847656 176.121094 99.945312 177.054688 100.34375 C 177.285156 100.441406 177.429688 100.746094 177.546875 100.882812 Z M 177.546875 100.882812 " fill-opacity="1" fill-rule="evenodd"/><path fill="#2fc18c" d="M 171.996094 107.015625 C 172.21875 107.050781 172.519531 107.078125 172.8125 107.152344 C 173.203125 107.246094 173.605469 107.46875 173.484375 107.894531 C 173.398438 108.191406 173.050781 108.535156 172.753906 108.621094 C 172.34375 108.738281 171.828125 108.738281 171.441406 108.585938 C 171.179688 108.480469 170.960938 108.039062 170.917969 107.722656 C 170.894531 107.546875 171.253906 107.296875 171.476562 107.121094 C 171.582031 107.039062 171.765625 107.054688 171.996094 107.015625 Z M 171.996094 107.015625 " fill-opacity="1" fill-rule="evenodd"/><path fill="#2fc18c" d="M 173.851562 94.984375 C 173.6875 95.148438 173.488281 95.515625 173.199219 95.613281 C 172.503906 95.84375 171.796875 95.398438 171.609375 94.722656 C 171.496094 94.324219 171.878906 93.796875 172.328125 93.730469 C 173.035156 93.625 173.71875 94.113281 173.851562 94.984375 Z M 173.851562 94.984375 " fill-opacity="1" fill-rule="evenodd"/><path fill="#2fc18c" d="M 170.824219 100.3125 C 171.003906 100.523438 171.410156 100.789062 171.511719 101.144531 C 171.691406 101.757812 171.203125 102.398438 170.632812 102.515625 C 170.15625 102.613281 169.640625 102.140625 169.59375 101.5625 C 169.542969 100.894531 169.996094 100.339844 170.824219 100.3125 Z M 170.824219 100.3125 " fill-opacity="1" fill-rule="evenodd"/><path fill="#2fc18c" d="M 202.929688 97.710938 C 202.773438 97.96875 202.671875 98.265625 202.464844 98.445312 C 202 98.859375 201.460938 99.175781 200.820312 98.847656 C 200.667969 98.769531 200.503906 98.46875 200.535156 98.304688 C 200.664062 97.636719 201.183594 97.304688 201.78125 97.113281 C 201.976562 97.050781 202.25 97.078125 202.4375 97.167969 C 202.617188 97.257812 202.730469 97.480469 202.929688 97.710938 Z M 202.929688 97.710938 " fill-opacity="1" fill-rule="evenodd"/><path fill="#2fc18c" d="M 190.605469 92.839844 C 190.351562 92.980469 190.007812 93.320312 189.640625 93.34375 C 189.113281 93.378906 188.714844 92.761719 188.777344 92.222656 C 188.828125 91.773438 189.320312 91.394531 189.75 91.472656 C 190.273438 91.566406 190.667969 92.097656 190.605469 92.839844 Z M 190.605469 92.839844 " fill-opacity="1" fill-rule="evenodd"/><path fill="#2fc18c" d="M 195.941406 93.265625 C 196.691406 93.222656 197.183594 93.621094 197.261719 94.179688 C 197.3125 94.535156 196.941406 94.949219 196.570312 94.953125 C 195.960938 94.957031 195.386719 94.550781 195.445312 94.035156 C 195.476562 93.730469 195.808594 93.460938 195.941406 93.265625 Z M 195.941406 93.265625 " fill-opacity="1" fill-rule="evenodd"/><path fill="#2fc18c" d="M 182.648438 97.417969 C 183.484375 97.359375 183.980469 97.726562 184.015625 98.25 C 184.042969 98.679688 183.65625 99.042969 183.121094 99.097656 C 182.480469 99.164062 181.902344 98.78125 182.027344 98.277344 C 182.121094 97.914062 182.492188 97.625 182.648438 97.417969 Z M 182.648438 97.417969 " fill-opacity="1" fill-rule="evenodd"/><path fill="#2fc18c" d="M 186.082031 104.011719 C 186.3125 103.835938 186.601562 103.457031 186.949219 103.386719 C 187.445312 103.285156 187.765625 103.675781 187.871094 104.167969 C 187.964844 104.613281 187.605469 105.125 187.183594 105.15625 C 186.691406 105.195312 186.148438 104.726562 186.082031 104.011719 Z M 186.082031 104.011719 " fill-opacity="1" fill-rule="evenodd"/><path fill="#2fc18c" d="M 212.964844 95.300781 C 212.875 95.851562 212.375 96.246094 211.800781 96.164062 C 211.371094 96.101562 211.125 95.8125 211.144531 95.371094 C 211.167969 94.78125 211.636719 94.339844 212.171875 94.355469 C 212.621094 94.375 213.035156 94.863281 212.964844 95.300781 Z M 212.964844 95.300781 " fill-opacity="1" fill-rule="evenodd"/><path fill="#2fc18c" d="M 178.835938 110.488281 C 178.679688 110.320312 178.339844 110.105469 178.242188 109.8125 C 178.085938 109.320312 178.539062 108.785156 179.078125 108.691406 C 179.539062 108.609375 180 108.984375 180 109.4375 C 180.003906 109.96875 179.554688 110.4375 178.835938 110.488281 Z M 178.835938 110.488281 " fill-opacity="1" fill-rule="evenodd"/><path fill="#2fc18c" d="M 183.824219 90.527344 C 183.726562 90.765625 183.6875 90.996094 183.558594 91.152344 C 183.238281 91.53125 182.804688 91.636719 182.328125 91.511719 C 182.195312 91.476562 182.003906 91.382812 181.972656 91.273438 C 181.914062 91.082031 181.878906 90.8125 181.972656 90.65625 C 182.265625 90.15625 182.734375 89.917969 183.316406 90.09375 C 183.5 90.152344 183.636719 90.359375 183.824219 90.527344 Z M 183.824219 90.527344 " fill-opacity="1" fill-rule="evenodd"/><path fill="#2fc18c" d="M 202.492188 94.042969 C 201.742188 94.003906 201.300781 93.558594 201.335938 93.03125 C 201.359375 92.679688 201.78125 92.351562 202.132812 92.417969 C 202.710938 92.523438 203.117188 93.003906 202.964844 93.527344 C 202.898438 93.757812 202.609375 93.921875 202.492188 94.042969 Z M 202.492188 94.042969 " fill-opacity="1" fill-rule="evenodd"/><path fill="#2fc18c" d="M 166.242188 98.773438 C 165.910156 98.433594 165.636719 98.277344 165.566406 98.054688 C 165.46875 97.746094 165.675781 97.429688 166.019531 97.476562 C 166.246094 97.503906 166.5625 97.726562 166.625 97.929688 C 166.683594 98.105469 166.4375 98.375 166.242188 98.773438 Z M 166.242188 98.773438 " fill-opacity="1" fill-rule="evenodd"/><path fill="#2fc18c" d="M 162.769531 99.058594 C 162.511719 99.183594 162.328125 99.351562 162.195312 99.316406 C 162.054688 99.28125 161.964844 99.050781 161.855469 98.90625 C 162.003906 98.796875 162.164062 98.59375 162.308594 98.601562 C 162.441406 98.609375 162.5625 98.84375 162.769531 99.058594 Z M 162.769531 99.058594 " fill-opacity="1" fill-rule="evenodd"/><g fill="#421981" fill-opacity="1"><g transform="translate(102.54296, 258.924257)"><g><path d="M 0.890625 -0.03125 C 0.648438 -0.0507812 0.53125 -0.21875 0.53125 -0.53125 L 0.53125 -3.171875 C 0.53125 -3.335938 0.566406 -3.453125 0.640625 -3.515625 C 0.710938 -3.578125 0.835938 -3.613281 1.015625 -3.625 L 2.46875 -3.5625 L 8.71875 -23.84375 C 8.78125 -24.039062 8.90625 -24.148438 9.09375 -24.171875 L 12.6875 -24.3125 C 12.875 -24.300781 13.003906 -24.175781 13.078125 -23.9375 L 19.90625 -3.6875 L 21.34375 -3.734375 C 21.632812 -3.710938 21.78125 -3.539062 21.78125 -3.21875 L 21.78125 -0.71875 C 21.78125 -0.539062 21.742188 -0.425781 21.671875 -0.375 C 21.597656 -0.320312 21.46875 -0.296875 21.28125 -0.296875 L 13.984375 -0.296875 C 13.785156 -0.296875 13.671875 -0.335938 13.640625 -0.421875 C 13.609375 -0.503906 13.59375 -0.625 13.59375 -0.78125 L 13.90625 -3.078125 C 13.925781 -3.253906 13.96875 -3.367188 14.03125 -3.421875 C 14.101562 -3.484375 14.222656 -3.515625 14.390625 -3.515625 L 16.1875 -3.5625 L 14.828125 -7.765625 L 7.015625 -7.921875 L 5.734375 -3.34375 L 7.640625 -3.53125 C 7.765625 -3.53125 7.847656 -3.503906 7.890625 -3.453125 C 7.941406 -3.398438 7.976562 -3.304688 8 -3.171875 L 8.25 -0.78125 C 8.226562 -0.59375 8.179688 -0.46875 8.109375 -0.40625 C 8.035156 -0.34375 7.921875 -0.304688 7.765625 -0.296875 Z M 7.75 -10.609375 L 13.890625 -10.609375 L 10.578125 -20.765625 Z M 7.75 -10.609375 "/></g></g></g><g fill="#421981" fill-opacity="1"><g transform="translate(124.108171, 258.924257)"><g><path d="M 13.78125 -13.46875 C 10.9375 -14.4375 8.929688 -14.921875 7.765625 -14.921875 C 6.503906 -14.921875 5.65625 -14.613281 5.21875 -14 C 5.03125 -13.75 4.9375 -13.445312 4.9375 -13.09375 C 4.9375 -12.738281 4.976562 -12.425781 5.0625 -12.15625 C 5.15625 -11.894531 5.3125 -11.664062 5.53125 -11.46875 C 5.96875 -11.039062 6.816406 -10.726562 8.078125 -10.53125 C 9.347656 -10.332031 10.453125 -10.113281 11.390625 -9.875 C 12.335938 -9.632812 13.097656 -9.328125 13.671875 -8.953125 C 14.242188 -8.585938 14.648438 -8.117188 14.890625 -7.546875 C 15.140625 -6.984375 15.265625 -6.253906 15.265625 -5.359375 C 15.265625 -4.472656 15.132812 -3.6875 14.875 -3 C 14.613281 -2.3125 14.238281 -1.734375 13.75 -1.265625 C 12.769531 -0.328125 11.414062 0.140625 9.6875 0.140625 C 8.488281 0.140625 7.117188 -0.00390625 5.578125 -0.296875 L 5.84375 1.015625 C 5.84375 1.179688 5.722656 1.273438 5.484375 1.296875 L 2.765625 1.53125 C 2.359375 1.53125 2.132812 1.328125 2.09375 0.921875 L 1.65625 -3.78125 C 1.65625 -3.96875 1.78125 -4.082031 2.03125 -4.125 L 4.5 -4.5625 C 4.675781 -4.5625 4.785156 -4.441406 4.828125 -4.203125 L 5.015625 -3.15625 C 6.546875 -2.914062 7.804688 -2.796875 8.796875 -2.796875 C 9.785156 -2.796875 10.519531 -3.003906 11 -3.421875 C 11.488281 -3.835938 11.734375 -4.382812 11.734375 -5.0625 C 11.734375 -5.707031 11.472656 -6.164062 10.953125 -6.4375 C 10.503906 -6.695312 9.617188 -6.925781 8.296875 -7.125 C 6.972656 -7.332031 5.882812 -7.5625 5.03125 -7.8125 C 4.1875 -8.0625 3.488281 -8.390625 2.9375 -8.796875 C 1.894531 -9.578125 1.375 -10.898438 1.375 -12.765625 C 1.375 -14.378906 1.863281 -15.671875 2.84375 -16.640625 C 3.882812 -17.660156 5.34375 -18.171875 7.21875 -18.171875 C 8.320312 -18.171875 9.597656 -17.804688 11.046875 -17.078125 L 10.734375 -18.3125 C 10.734375 -18.570312 10.847656 -18.710938 11.078125 -18.734375 L 14.203125 -18.984375 C 14.367188 -18.984375 14.453125 -18.863281 14.453125 -18.625 L 14.109375 -13.796875 C 14.097656 -13.578125 13.988281 -13.46875 13.78125 -13.46875 Z M 13.78125 -13.46875 "/></g></g></g><g fill="#421981" fill-opacity="1"><g transform="translate(140.274186, 258.924257)"><g><path d="M 0.25 -17.375 C 0.25 -17.582031 0.367188 -17.6875 0.609375 -17.6875 L 7.78125 -17.84375 C 7.96875 -17.84375 8.0625 -17.726562 8.0625 -17.5 L 8.15625 -14.8125 C 8.132812 -14.675781 8.097656 -14.585938 8.046875 -14.546875 C 8.003906 -14.503906 7.921875 -14.484375 7.796875 -14.484375 L 5.734375 -14.4375 L 9.84375 -2.828125 L 13.5625 -14.515625 L 11.40625 -14.3125 C 11.238281 -14.3125 11.148438 -14.398438 11.140625 -14.578125 L 11.28125 -17.5 C 11.289062 -17.726562 11.40625 -17.84375 11.625 -17.84375 L 18.53125 -18 C 18.695312 -17.988281 18.78125 -17.863281 18.78125 -17.625 L 18.625 -14.890625 C 18.601562 -14.671875 18.484375 -14.5625 18.265625 -14.5625 L 16.875 -14.6875 L 9.265625 6.796875 C 9.179688 7.046875 9.054688 7.171875 8.890625 7.171875 L 5.765625 6.3125 C 5.535156 6.28125 5.421875 6.175781 5.421875 6 C 5.421875 5.925781 5.441406 5.851562 5.484375 5.78125 L 8.9375 -0.84375 L 7.578125 -0.796875 C 7.441406 -0.796875 7.328125 -0.890625 7.234375 -1.078125 L 1.921875 -14.359375 L 0.421875 -14.328125 C 0.203125 -14.328125 0.09375 -14.453125 0.09375 -14.703125 Z M 0.25 -17.375 "/></g></g></g><g fill="#421981" fill-opacity="1"><g transform="translate(159.171379, 258.924257)"><g><path d="M 12.515625 -14.265625 C 11.171875 -14.265625 9.640625 -13.71875 7.921875 -12.625 L 8.125 -3.15625 L 9.84375 -3.34375 C 10.019531 -3.34375 10.109375 -3.253906 10.109375 -3.078125 L 9.8125 -0.625 C 9.769531 -0.394531 9.648438 -0.28125 9.453125 -0.28125 L 2.875 -0.28125 C 2.707031 -0.28125 2.625 -0.40625 2.625 -0.65625 L 2.9375 -3.078125 C 2.976562 -3.296875 3.09375 -3.40625 3.28125 -3.40625 L 4.625 -3.40625 L 4.625 -13.84375 L 2.21875 -13.90625 C 2 -13.90625 1.890625 -14.035156 1.890625 -14.296875 L 2.171875 -17.03125 C 2.203125 -17.207031 2.332031 -17.316406 2.5625 -17.359375 L 6.9375 -18 C 7.125 -18 7.21875 -17.878906 7.21875 -17.640625 L 7.21875 -14.90625 C 9.382812 -17.070312 11.515625 -18.15625 13.609375 -18.15625 C 16.015625 -18.15625 17.445312 -17.015625 17.90625 -14.734375 C 18.050781 -13.972656 18.125 -13.265625 18.125 -12.609375 C 18.125 -11.953125 18.117188 -11.398438 18.109375 -10.953125 C 18.097656 -10.503906 18.082031 -10.007812 18.0625 -9.46875 L 18.03125 -7.828125 C 18.007812 -7.253906 17.988281 -6.675781 17.96875 -6.09375 L 17.90625 -4.421875 C 17.882812 -3.878906 17.863281 -3.382812 17.84375 -2.9375 L 19.65625 -3.015625 C 19.882812 -3.015625 20 -2.890625 20 -2.640625 L 20 -0.3125 C 20 -0.1875 19.96875 -0.101562 19.90625 -0.0625 C 19.84375 -0.03125 19.75 -0.0078125 19.625 0 L 15.046875 0.34375 C 14.816406 0.34375 14.703125 0.226562 14.703125 0 C 14.734375 -1.144531 14.75 -2.222656 14.75 -3.234375 L 14.78125 -5.875 C 14.78125 -6.625 14.78125 -7.320312 14.78125 -7.96875 L 14.78125 -10.859375 C 14.78125 -12.171875 14.671875 -13.003906 14.453125 -13.359375 C 14.234375 -13.722656 13.972656 -13.960938 13.671875 -14.078125 C 13.378906 -14.203125 12.992188 -14.265625 12.515625 -14.265625 Z M 12.515625 -14.265625 "/></g></g></g><g fill="#421981" fill-opacity="1"><g transform="translate(180.799738, 258.924257)"><g><path d="M 3.453125 -16.640625 C 3.910156 -17.128906 4.476562 -17.507812 5.15625 -17.78125 C 5.84375 -18.0625 6.679688 -18.203125 7.671875 -18.203125 C 8.671875 -18.203125 9.78125 -18.050781 11 -17.75 L 13.984375 -18.296875 C 14.171875 -18.265625 14.273438 -18.148438 14.296875 -17.953125 L 14.5625 -12.328125 C 14.539062 -12.078125 14.425781 -11.9375 14.21875 -11.90625 L 11.578125 -11.5625 C 11.359375 -11.5625 11.25 -11.675781 11.25 -11.90625 L 11.25 -14.578125 C 10.570312 -14.734375 9.847656 -14.8125 9.078125 -14.8125 C 8.304688 -14.8125 7.628906 -14.6875 7.046875 -14.4375 C 6.460938 -14.1875 6.007812 -13.804688 5.6875 -13.296875 C 5.113281 -12.410156 4.828125 -10.890625 4.828125 -8.734375 C 4.828125 -5.492188 5.492188 -3.644531 6.828125 -3.1875 C 7.242188 -3.039062 7.726562 -2.96875 8.28125 -2.96875 C 9.0625 -2.96875 9.960938 -3.066406 10.984375 -3.265625 L 11.0625 -4.359375 C 11.082031 -4.609375 11.191406 -4.742188 11.390625 -4.765625 L 13.875 -4.671875 C 14.03125 -4.648438 14.117188 -4.53125 14.140625 -4.3125 L 14.421875 0.625 C 14.421875 0.851562 14.316406 0.96875 14.109375 0.96875 L 11.078125 0.96875 C 10.910156 0.96875 10.816406 0.863281 10.796875 0.65625 L 10.84375 -0.234375 C 7.03125 0.515625 4.414062 -0.015625 3 -1.828125 C 1.988281 -3.140625 1.484375 -5.253906 1.484375 -8.171875 C 1.484375 -10.117188 1.566406 -11.566406 1.734375 -12.515625 C 1.898438 -13.472656 2.113281 -14.28125 2.375 -14.9375 C 2.644531 -15.59375 3.003906 -16.160156 3.453125 -16.640625 Z M 3.453125 -16.640625 "/></g></g></g><g fill="#421981" fill-opacity="1"><g transform="translate(196.965753, 258.924257)"><g><path d="M 15.046875 -12.5625 C 18.367188 -11.875 20.03125 -9.96875 20.03125 -6.84375 C 20.03125 -3.125 18.257812 -0.882812 14.71875 -0.125 C 13.5625 0.113281 12.4375 0.234375 11.34375 0.234375 C 10.25 0.234375 9.296875 0.210938 8.484375 0.171875 C 7.671875 0.140625 6.875 0.09375 6.09375 0.03125 C 3.46875 -0.175781 2.085938 -0.382812 1.953125 -0.59375 C 1.898438 -0.675781 1.867188 -0.785156 1.859375 -0.921875 L 2 -3.234375 C 2.019531 -3.535156 2.1875 -3.6875 2.5 -3.6875 C 2.820312 -3.6875 3.453125 -3.617188 4.390625 -3.484375 L 4.390625 -20.84375 C 3.546875 -20.789062 2.941406 -20.765625 2.578125 -20.765625 C 2.210938 -20.765625 2.019531 -20.910156 2 -21.203125 L 1.859375 -23.421875 C 1.878906 -23.703125 2.007812 -23.863281 2.25 -23.90625 C 4.675781 -24.34375 7.320312 -24.5625 10.1875 -24.5625 C 15.800781 -24.5625 18.609375 -22.351562 18.609375 -17.9375 C 18.609375 -15.769531 17.921875 -14.222656 16.546875 -13.296875 C 16.109375 -12.992188 15.609375 -12.75 15.046875 -12.5625 Z M 7.921875 -3.078125 C 8.867188 -3.023438 9.753906 -3 10.578125 -3 C 11.398438 -3 12.179688 -3.039062 12.921875 -3.125 C 13.671875 -3.21875 14.3125 -3.394531 14.84375 -3.65625 C 15.976562 -4.226562 16.546875 -5.28125 16.546875 -6.8125 C 16.546875 -8.9375 15.421875 -10.140625 13.171875 -10.421875 C 12.503906 -10.503906 11.703125 -10.546875 10.765625 -10.546875 C 9.835938 -10.546875 8.890625 -10.5 7.921875 -10.40625 Z M 12.171875 -21.1875 C 11.597656 -21.289062 10.976562 -21.34375 10.3125 -21.34375 C 9.644531 -21.34375 8.847656 -21.289062 7.921875 -21.1875 L 7.921875 -13.5 C 8.234375 -13.476562 8.539062 -13.46875 8.84375 -13.46875 L 9.78125 -13.46875 C 11.5 -13.46875 12.773438 -13.738281 13.609375 -14.28125 C 14.585938 -14.894531 15.078125 -15.984375 15.078125 -17.546875 C 15.078125 -19.660156 14.109375 -20.875 12.171875 -21.1875 Z M 12.171875 -21.1875 "/></g></g></g><g fill="#421981" fill-opacity="1"><g transform="translate(218.530963, 258.924257)"><g><path d="M 13.375 -0.09375 C 12.03125 0.238281 10.320312 0.40625 8.25 0.40625 C 6.125 0.40625 4.582031 -0.242188 3.625 -1.546875 C 2.625 -2.898438 2.125 -5.050781 2.125 -8 C 2.125 -11.101562 2.550781 -13.414062 3.40625 -14.9375 C 4.375 -16.625 5.921875 -17.648438 8.046875 -18.015625 C 8.785156 -18.140625 9.609375 -18.203125 10.515625 -18.203125 C 12.460938 -18.203125 13.878906 -17.722656 14.765625 -16.765625 C 15.648438 -15.804688 16.09375 -14.34375 16.09375 -12.375 C 16.09375 -11.09375 15.863281 -10.101562 15.40625 -9.40625 C 15.257812 -9.1875 15.0625 -8.9375 14.8125 -8.65625 C 14.5625 -8.382812 14.09375 -8.140625 13.40625 -7.921875 C 12.726562 -7.703125 11.957031 -7.535156 11.09375 -7.421875 C 9.726562 -7.253906 7.859375 -7.171875 5.484375 -7.171875 C 5.617188 -5.390625 6.054688 -4.175781 6.796875 -3.53125 C 7.347656 -3.03125 8.316406 -2.78125 9.703125 -2.78125 C 10.992188 -2.78125 12.28125 -2.890625 13.5625 -3.109375 L 13.609375 -3.9375 C 13.617188 -4.0625 13.644531 -4.144531 13.6875 -4.1875 C 13.738281 -4.226562 13.828125 -4.265625 13.953125 -4.296875 L 16.234375 -4.796875 C 16.460938 -4.796875 16.59375 -4.695312 16.625 -4.5 C 16.65625 -4.320312 16.6875 -3.972656 16.71875 -3.453125 C 16.75 -2.929688 16.78125 -2.476562 16.8125 -2.09375 C 16.84375 -1.71875 16.867188 -1.359375 16.890625 -1.015625 L 16.96875 -0.125 C 16.976562 0.132812 16.984375 0.351562 16.984375 0.53125 C 16.984375 0.851562 16.75 1.039062 16.28125 1.09375 L 13.65625 1.40625 C 13.425781 1.40625 13.3125 1.289062 13.3125 1.0625 Z M 11.90625 -10.4375 C 12.175781 -10.675781 12.335938 -10.957031 12.390625 -11.28125 C 12.453125 -11.601562 12.484375 -11.984375 12.484375 -12.421875 C 12.484375 -12.859375 12.441406 -13.242188 12.359375 -13.578125 C 12.285156 -13.921875 12.15625 -14.210938 11.96875 -14.453125 C 11.5625 -14.953125 10.894531 -15.203125 9.96875 -15.203125 C 8.175781 -15.203125 6.976562 -14.75 6.375 -13.84375 C 5.8125 -13.007812 5.5 -11.554688 5.4375 -9.484375 C 9.101562 -9.546875 11.257812 -9.863281 11.90625 -10.4375 Z M 11.90625 -10.4375 "/></g></g></g><g fill="#421981" fill-opacity="1"><g transform="translate(237.412363, 258.924257)"><g><path d="M 13.375 -0.09375 C 12.03125 0.238281 10.320312 0.40625 8.25 0.40625 C 6.125 0.40625 4.582031 -0.242188 3.625 -1.546875 C 2.625 -2.898438 2.125 -5.050781 2.125 -8 C 2.125 -11.101562 2.550781 -13.414062 3.40625 -14.9375 C 4.375 -16.625 5.921875 -17.648438 8.046875 -18.015625 C 8.785156 -18.140625 9.609375 -18.203125 10.515625 -18.203125 C 12.460938 -18.203125 13.878906 -17.722656 14.765625 -16.765625 C 15.648438 -15.804688 16.09375 -14.34375 16.09375 -12.375 C 16.09375 -11.09375 15.863281 -10.101562 15.40625 -9.40625 C 15.257812 -9.1875 15.0625 -8.9375 14.8125 -8.65625 C 14.5625 -8.382812 14.09375 -8.140625 13.40625 -7.921875 C 12.726562 -7.703125 11.957031 -7.535156 11.09375 -7.421875 C 9.726562 -7.253906 7.859375 -7.171875 5.484375 -7.171875 C 5.617188 -5.390625 6.054688 -4.175781 6.796875 -3.53125 C 7.347656 -3.03125 8.316406 -2.78125 9.703125 -2.78125 C 10.992188 -2.78125 12.28125 -2.890625 13.5625 -3.109375 L 13.609375 -3.9375 C 13.617188 -4.0625 13.644531 -4.144531 13.6875 -4.1875 C 13.738281 -4.226562 13.828125 -4.265625 13.953125 -4.296875 L 16.234375 -4.796875 C 16.460938 -4.796875 16.59375 -4.695312 16.625 -4.5 C 16.65625 -4.320312 16.6875 -3.972656 16.71875 -3.453125 C 16.75 -2.929688 16.78125 -2.476562 16.8125 -2.09375 C 16.84375 -1.71875 16.867188 -1.359375 16.890625 -1.015625 L 16.96875 -0.125 C 16.976562 0.132812 16.984375 0.351562 16.984375 0.53125 C 16.984375 0.851562 16.75 1.039062 16.28125 1.09375 L 13.65625 1.40625 C 13.425781 1.40625 13.3125 1.289062 13.3125 1.0625 Z M 11.90625 -10.4375 C 12.175781 -10.675781 12.335938 -10.957031 12.390625 -11.28125 C 12.453125 -11.601562 12.484375 -11.984375 12.484375 -12.421875 C 12.484375 -12.859375 12.441406 -13.242188 12.359375 -13.578125 C 12.285156 -13.921875 12.15625 -14.210938 11.96875 -14.453125 C 11.5625 -14.953125 10.894531 -15.203125 9.96875 -15.203125 C 8.175781 -15.203125 6.976562 -14.75 6.375 -13.84375 C 5.8125 -13.007812 5.5 -11.554688 5.4375 -9.484375 C 9.101562 -9.546875 11.257812 -9.863281 11.90625 -10.4375 Z M 11.90625 -10.4375 "/></g></g></g><g fill="#421981" fill-opacity="1"><g transform="translate(256.293763, 258.924257)"><g><path d="M 2.140625 0.1875 C 1.972656 0.1875 1.890625 0.0625 1.890625 -0.1875 L 1.890625 -2.921875 C 1.890625 -3.140625 2.007812 -3.25 2.25 -3.25 L 4.09375 -3.25 L 4.09375 -13.9375 L 1.828125 -13.75 C 1.660156 -13.757812 1.554688 -13.890625 1.515625 -14.140625 L 1.171875 -17.5 C 1.203125 -17.695312 1.328125 -17.804688 1.546875 -17.828125 L 6.390625 -18.15625 C 6.585938 -18.15625 6.6875 -18.035156 6.6875 -17.796875 L 6.4375 -15.1875 C 7.632812 -16.507812 9.382812 -17.382812 11.6875 -17.8125 C 12.382812 -17.945312 13.050781 -18.015625 13.6875 -18.015625 C 14.332031 -18.015625 14.664062 -17.847656 14.6875 -17.515625 L 14.875 -11.734375 C 14.875 -11.546875 14.796875 -11.441406 14.640625 -11.421875 L 11.671875 -11.203125 C 11.546875 -11.203125 11.445312 -11.222656 11.375 -11.265625 C 11.300781 -11.304688 11.265625 -11.414062 11.265625 -11.59375 L 11.265625 -14.390625 C 9.890625 -14.273438 8.679688 -14 7.640625 -13.5625 L 7.46875 -3.140625 L 10.21875 -3.34375 C 10.382812 -3.34375 10.472656 -3.253906 10.484375 -3.078125 L 10.65625 -0.46875 C 10.625 -0.257812 10.507812 -0.144531 10.3125 -0.125 Z M 2.140625 0.1875 "/></g></g></g><g fill="#421981" fill-opacity="1"><g transform="translate(120.085928, 292.674254)"><g><path d="M 3.890625 -20.734375 C 3.242188 -20.691406 2.5 -20.628906 1.65625 -20.546875 C 1.539062 -20.546875 1.46875 -20.570312 1.4375 -20.625 C 1.40625 -20.675781 1.382812 -20.765625 1.375 -20.890625 L 1.15625 -23.828125 C 1.164062 -23.953125 1.195312 -24.03125 1.25 -24.0625 C 1.3125 -24.101562 1.40625 -24.132812 1.53125 -24.15625 C 2.570312 -24.175781 3.476562 -24.195312 4.25 -24.21875 C 5.03125 -24.25 5.707031 -24.269531 6.28125 -24.28125 C 6.851562 -24.289062 7.34375 -24.296875 7.75 -24.296875 C 8.15625 -24.304688 8.503906 -24.3125 8.796875 -24.3125 C 9.097656 -24.320312 9.367188 -24.328125 9.609375 -24.328125 L 10.265625 -24.328125 C 13.398438 -24.328125 15.726562 -23.503906 17.25 -21.859375 C 19.007812 -19.960938 19.890625 -16.8125 19.890625 -12.40625 C 19.890625 -8.25 19 -5.0625 17.21875 -2.84375 C 15.519531 -0.75 13.175781 0.296875 10.1875 0.296875 C 7.050781 0.296875 4.1875 0.164062 1.59375 -0.09375 C 1.414062 -0.101562 1.320312 -0.226562 1.3125 -0.46875 L 1.5 -3.265625 C 1.519531 -3.429688 1.601562 -3.53125 1.75 -3.5625 L 3.46875 -3.4375 Z M 7.15625 -3.234375 C 8.039062 -3.171875 8.679688 -3.140625 9.078125 -3.140625 L 10.09375 -3.140625 C 12.226562 -3.140625 13.796875 -3.878906 14.796875 -5.359375 C 15.804688 -6.847656 16.3125 -9.066406 16.3125 -12.015625 C 16.3125 -16.898438 15.140625 -19.785156 12.796875 -20.671875 C 12.035156 -20.953125 11.347656 -21.09375 10.734375 -21.09375 C 9.679688 -21.09375 8.550781 -21.054688 7.34375 -20.984375 Z M 7.15625 -3.234375 "/></g></g></g><g fill="#421981" fill-opacity="1"><g transform="translate(141.651139, 292.674254)"><g><path d="M 13.375 -0.09375 C 12.03125 0.238281 10.320312 0.40625 8.25 0.40625 C 6.125 0.40625 4.582031 -0.242188 3.625 -1.546875 C 2.625 -2.898438 2.125 -5.050781 2.125 -8 C 2.125 -11.101562 2.550781 -13.414062 3.40625 -14.9375 C 4.375 -16.625 5.921875 -17.648438 8.046875 -18.015625 C 8.785156 -18.140625 9.609375 -18.203125 10.515625 -18.203125 C 12.460938 -18.203125 13.878906 -17.722656 14.765625 -16.765625 C 15.648438 -15.804688 16.09375 -14.34375 16.09375 -12.375 C 16.09375 -11.09375 15.863281 -10.101562 15.40625 -9.40625 C 15.257812 -9.1875 15.0625 -8.9375 14.8125 -8.65625 C 14.5625 -8.382812 14.09375 -8.140625 13.40625 -7.921875 C 12.726562 -7.703125 11.957031 -7.535156 11.09375 -7.421875 C 9.726562 -7.253906 7.859375 -7.171875 5.484375 -7.171875 C 5.617188 -5.390625 6.054688 -4.175781 6.796875 -3.53125 C 7.347656 -3.03125 8.316406 -2.78125 9.703125 -2.78125 C 10.992188 -2.78125 12.28125 -2.890625 13.5625 -3.109375 L 13.609375 -3.9375 C 13.617188 -4.0625 13.644531 -4.144531 13.6875 -4.1875 C 13.738281 -4.226562 13.828125 -4.265625 13.953125 -4.296875 L 16.234375 -4.796875 C 16.460938 -4.796875 16.59375 -4.695312 16.625 -4.5 C 16.65625 -4.320312 16.6875 -3.972656 16.71875 -3.453125 C 16.75 -2.929688 16.78125 -2.476562 16.8125 -2.09375 C 16.84375 -1.71875 16.867188 -1.359375 16.890625 -1.015625 L 16.96875 -0.125 C 16.976562 0.132812 16.984375 0.351562 16.984375 0.53125 C 16.984375 0.851562 16.75 1.039062 16.28125 1.09375 L 13.65625 1.40625 C 13.425781 1.40625 13.3125 1.289062 13.3125 1.0625 Z M 11.90625 -10.4375 C 12.175781 -10.675781 12.335938 -10.957031 12.390625 -11.28125 C 12.453125 -11.601562 12.484375 -11.984375 12.484375 -12.421875 C 12.484375 -12.859375 12.441406 -13.242188 12.359375 -13.578125 C 12.285156 -13.921875 12.15625 -14.210938 11.96875 -14.453125 C 11.5625 -14.953125 10.894531 -15.203125 9.96875 -15.203125 C 8.175781 -15.203125 6.976562 -14.75 6.375 -13.84375 C 5.8125 -13.007812 5.5 -11.554688 5.4375 -9.484375 C 9.101562 -9.546875 11.257812 -9.863281 11.90625 -10.4375 Z M 11.90625 -10.4375 "/></g></g></g><g fill="#421981" fill-opacity="1"><g transform="translate(160.532538, 292.674254)"><g><path d="M 1.984375 -21.421875 C 1.796875 -21.421875 1.703125 -21.535156 1.703125 -21.765625 L 1.796875 -24.859375 C 1.796875 -24.984375 1.828125 -25.0625 1.890625 -25.09375 C 1.953125 -25.132812 2.046875 -25.164062 2.171875 -25.1875 L 7.3125 -25.0625 C 7.425781 -25.0625 7.5 -25.03125 7.53125 -24.96875 C 7.5625 -24.914062 7.582031 -24.828125 7.59375 -24.703125 L 7.484375 -22.1875 L 7.71875 -3.296875 L 9.875 -3.46875 C 10.019531 -3.46875 10.101562 -3.367188 10.125 -3.171875 L 10.3125 -0.3125 C 10.289062 -0.1875 10.253906 -0.101562 10.203125 -0.0625 C 10.160156 -0.03125 10.070312 -0.0078125 9.9375 0 L 1.359375 -0.09375 C 1.210938 -0.09375 1.140625 -0.21875 1.140625 -0.46875 L 1.140625 -3.171875 C 1.140625 -3.367188 1.222656 -3.46875 1.390625 -3.46875 L 4.375 -3.28125 L 4.375 -21.609375 Z M 1.984375 -21.421875 "/></g></g></g><g fill="#421981" fill-opacity="1"><g transform="translate(171.315149, 292.674254)"><g><path d="M 2.375 0.21875 C 2.21875 0.21875 2.140625 0.09375 2.140625 -0.15625 L 2.140625 -2.546875 C 2.140625 -2.742188 2.226562 -2.84375 2.40625 -2.84375 L 4.296875 -2.84375 L 4.421875 -13.875 L 1.859375 -14.15625 C 1.671875 -14.175781 1.578125 -14.289062 1.578125 -14.5 L 1.921875 -17.109375 C 1.960938 -17.296875 2.09375 -17.40625 2.3125 -17.4375 L 7.375 -17.953125 C 7.488281 -17.953125 7.5625 -17.921875 7.59375 -17.859375 C 7.625 -17.804688 7.644531 -17.71875 7.65625 -17.59375 L 7.859375 -14.71875 L 7.8125 -2.84375 L 9.625 -2.84375 C 9.789062 -2.84375 9.875 -2.742188 9.875 -2.546875 L 9.59375 -0.46875 C 9.5625 -0.34375 9.519531 -0.257812 9.46875 -0.21875 C 9.425781 -0.1875 9.335938 -0.164062 9.203125 -0.15625 Z M 7.28125 -21.5 C 7.082031 -21.34375 6.8125 -21.238281 6.46875 -21.1875 C 6.132812 -21.132812 5.734375 -21.109375 5.265625 -21.109375 C 4.796875 -21.109375 4.4375 -21.132812 4.1875 -21.1875 C 3.945312 -21.238281 3.75 -21.335938 3.59375 -21.484375 C 3.351562 -21.734375 3.234375 -22.175781 3.234375 -22.8125 C 3.234375 -23.457031 3.265625 -23.921875 3.328125 -24.203125 C 3.398438 -24.484375 3.535156 -24.703125 3.734375 -24.859375 C 4.054688 -25.128906 4.585938 -25.265625 5.328125 -25.265625 C 6.066406 -25.265625 6.5625 -25.242188 6.8125 -25.203125 C 7.070312 -25.171875 7.273438 -25.085938 7.421875 -24.953125 C 7.671875 -24.734375 7.796875 -24.289062 7.796875 -23.625 C 7.796875 -22.957031 7.757812 -22.476562 7.6875 -22.1875 C 7.613281 -21.894531 7.476562 -21.664062 7.28125 -21.5 Z M 7.28125 -21.5 "/></g></g></g><g fill="#421981" fill-opacity="1"><g transform="translate(182.09776, 292.674254)"><g><path d="M 0.390625 -17.375 C 0.390625 -17.582031 0.515625 -17.6875 0.765625 -17.6875 L 7.921875 -17.6875 C 8.078125 -17.6875 8.164062 -17.65625 8.1875 -17.59375 C 8.207031 -17.539062 8.21875 -17.457031 8.21875 -17.34375 L 7.96875 -14.8125 C 7.945312 -14.675781 7.914062 -14.585938 7.875 -14.546875 C 7.832031 -14.503906 7.75 -14.484375 7.625 -14.484375 L 5.96875 -14.4375 L 10 -3.125 L 13.5 -14.671875 L 11.578125 -14.46875 C 11.410156 -14.46875 11.320312 -14.554688 11.3125 -14.734375 L 11.140625 -17.34375 C 11.171875 -17.550781 11.285156 -17.664062 11.484375 -17.6875 L 18.21875 -18 C 18.394531 -17.988281 18.484375 -17.863281 18.484375 -17.625 L 18.484375 -14.734375 C 18.441406 -14.515625 18.320312 -14.40625 18.125 -14.40625 L 16.5625 -14.40625 L 11.671875 -0.265625 C 11.609375 -0.0664062 11.46875 0.0390625 11.25 0.0625 L 8.421875 0.1875 C 8.222656 0.164062 8.070312 0.0390625 7.96875 -0.1875 L 2.171875 -14.359375 L 0.71875 -14.328125 C 0.5 -14.328125 0.390625 -14.453125 0.390625 -14.703125 Z M 0.390625 -17.375 "/></g></g></g><g fill="#421981" fill-opacity="1"><g transform="translate(200.963379, 292.674254)"><g><path d="M 13.375 -0.09375 C 12.03125 0.238281 10.320312 0.40625 8.25 0.40625 C 6.125 0.40625 4.582031 -0.242188 3.625 -1.546875 C 2.625 -2.898438 2.125 -5.050781 2.125 -8 C 2.125 -11.101562 2.550781 -13.414062 3.40625 -14.9375 C 4.375 -16.625 5.921875 -17.648438 8.046875 -18.015625 C 8.785156 -18.140625 9.609375 -18.203125 10.515625 -18.203125 C 12.460938 -18.203125 13.878906 -17.722656 14.765625 -16.765625 C 15.648438 -15.804688 16.09375 -14.34375 16.09375 -12.375 C 16.09375 -11.09375 15.863281 -10.101562 15.40625 -9.40625 C 15.257812 -9.1875 15.0625 -8.9375 14.8125 -8.65625 C 14.5625 -8.382812 14.09375 -8.140625 13.40625 -7.921875 C 12.726562 -7.703125 11.957031 -7.535156 11.09375 -7.421875 C 9.726562 -7.253906 7.859375 -7.171875 5.484375 -7.171875 C 5.617188 -5.390625 6.054688 -4.175781 6.796875 -3.53125 C 7.347656 -3.03125 8.316406 -2.78125 9.703125 -2.78125 C 10.992188 -2.78125 12.28125 -2.890625 13.5625 -3.109375 L 13.609375 -3.9375 C 13.617188 -4.0625 13.644531 -4.144531 13.6875 -4.1875 C 13.738281 -4.226562 13.828125 -4.265625 13.953125 -4.296875 L 16.234375 -4.796875 C 16.460938 -4.796875 16.59375 -4.695312 16.625 -4.5 C 16.65625 -4.320312 16.6875 -3.972656 16.71875 -3.453125 C 16.75 -2.929688 16.78125 -2.476562 16.8125 -2.09375 C 16.84375 -1.71875 16.867188 -1.359375 16.890625 -1.015625 L 16.96875 -0.125 C 16.976562 0.132812 16.984375 0.351562 16.984375 0.53125 C 16.984375 0.851562 16.75 1.039062 16.28125 1.09375 L 13.65625 1.40625 C 13.425781 1.40625 13.3125 1.289062 13.3125 1.0625 Z M 11.90625 -10.4375 C 12.175781 -10.675781 12.335938 -10.957031 12.390625 -11.28125 C 12.453125 -11.601562 12.484375 -11.984375 12.484375 -12.421875 C 12.484375 -12.859375 12.441406 -13.242188 12.359375 -13.578125 C 12.285156 -13.921875 12.15625 -14.210938 11.96875 -14.453125 C 11.5625 -14.953125 10.894531 -15.203125 9.96875 -15.203125 C 8.175781 -15.203125 6.976562 -14.75 6.375 -13.84375 C 5.8125 -13.007812 5.5 -11.554688 5.4375 -9.484375 C 9.101562 -9.546875 11.257812 -9.863281 11.90625 -10.4375 Z M 11.90625 -10.4375 "/></g></g></g><g fill="#421981" fill-opacity="1"><g transform="translate(219.844779, 292.674254)"><g><path d="M 2.140625 0.1875 C 1.972656 0.1875 1.890625 0.0625 1.890625 -0.1875 L 1.890625 -2.921875 C 1.890625 -3.140625 2.007812 -3.25 2.25 -3.25 L 4.09375 -3.25 L 4.09375 -13.9375 L 1.828125 -13.75 C 1.660156 -13.757812 1.554688 -13.890625 1.515625 -14.140625 L 1.171875 -17.5 C 1.203125 -17.695312 1.328125 -17.804688 1.546875 -17.828125 L 6.390625 -18.15625 C 6.585938 -18.15625 6.6875 -18.035156 6.6875 -17.796875 L 6.4375 -15.1875 C 7.632812 -16.507812 9.382812 -17.382812 11.6875 -17.8125 C 12.382812 -17.945312 13.050781 -18.015625 13.6875 -18.015625 C 14.332031 -18.015625 14.664062 -17.847656 14.6875 -17.515625 L 14.875 -11.734375 C 14.875 -11.546875 14.796875 -11.441406 14.640625 -11.421875 L 11.671875 -11.203125 C 11.546875 -11.203125 11.445312 -11.222656 11.375 -11.265625 C 11.300781 -11.304688 11.265625 -11.414062 11.265625 -11.59375 L 11.265625 -14.390625 C 9.890625 -14.273438 8.679688 -14 7.640625 -13.5625 L 7.46875 -3.140625 L 10.21875 -3.34375 C 10.382812 -3.34375 10.472656 -3.253906 10.484375 -3.078125 L 10.65625 -0.46875 C 10.625 -0.257812 10.507812 -0.144531 10.3125 -0.125 Z M 2.140625 0.1875 "/></g></g></g><g fill="#421981" fill-opacity="1"><g transform="translate(236.010794, 292.674254)"><g><path d="M 0.25 -17.375 C 0.25 -17.582031 0.367188 -17.6875 0.609375 -17.6875 L 7.78125 -17.84375 C 7.96875 -17.84375 8.0625 -17.726562 8.0625 -17.5 L 8.15625 -14.8125 C 8.132812 -14.675781 8.097656 -14.585938 8.046875 -14.546875 C 8.003906 -14.503906 7.921875 -14.484375 7.796875 -14.484375 L 5.734375 -14.4375 L 9.84375 -2.828125 L 13.5625 -14.515625 L 11.40625 -14.3125 C 11.238281 -14.3125 11.148438 -14.398438 11.140625 -14.578125 L 11.28125 -17.5 C 11.289062 -17.726562 11.40625 -17.84375 11.625 -17.84375 L 18.53125 -18 C 18.695312 -17.988281 18.78125 -17.863281 18.78125 -17.625 L 18.625 -14.890625 C 18.601562 -14.671875 18.484375 -14.5625 18.265625 -14.5625 L 16.875 -14.6875 L 9.265625 6.796875 C 9.179688 7.046875 9.054688 7.171875 8.890625 7.171875 L 5.765625 6.3125 C 5.535156 6.28125 5.421875 6.175781 5.421875 6 C 5.421875 5.925781 5.441406 5.851562 5.484375 5.78125 L 8.9375 -0.84375 L 7.578125 -0.796875 C 7.441406 -0.796875 7.328125 -0.890625 7.234375 -1.078125 L 1.921875 -14.359375 L 0.421875 -14.328125 C 0.203125 -14.328125 0.09375 -14.453125 0.09375 -14.703125 Z M 0.25 -17.375 "/></g></g></g></svg>